<mxfile host="app.diagrams.net" agent="Mozilla/5.0 (Windows NT 10.0; Win64; x64) AppleWebKit/537.36 (KHTML, like Gecko) Chrome/128.0.0.0 Safari/537.36" version="24.7.12">
  <diagram id="C5RBs43oDa-KdzZeNtuy" name="Page-1">
    <mxGraphModel dx="2316" dy="2659" grid="1" gridSize="10" guides="1" tooltips="1" connect="1" arrows="1" fold="1" page="1" pageScale="1" pageWidth="827" pageHeight="1169" background="#ffffff" math="0" shadow="0">
      <root>
        <mxCell id="WIyWlLk6GJQsqaUBKTNV-0" />
        <mxCell id="WIyWlLk6GJQsqaUBKTNV-1" parent="WIyWlLk6GJQsqaUBKTNV-0" />
        <mxCell id="DIeXPmCnPWFFwvMt-zQG-0" value="board01" style="swimlane;whiteSpace=wrap;html=1;" vertex="1" parent="WIyWlLk6GJQsqaUBKTNV-1">
          <mxGeometry x="50" y="120" width="120" height="130" as="geometry" />
        </mxCell>
        <mxCell id="DIeXPmCnPWFFwvMt-zQG-1" value="글 목록보기(메인)" style="text;html=1;align=center;verticalAlign=middle;resizable=0;points=[];autosize=1;strokeColor=none;fillColor=none;" vertex="1" parent="DIeXPmCnPWFFwvMt-zQG-0">
          <mxGeometry y="60" width="120" height="30" as="geometry" />
        </mxCell>
        <mxCell id="DIeXPmCnPWFFwvMt-zQG-54" style="edgeStyle=orthogonalEdgeStyle;rounded=0;orthogonalLoop=1;jettySize=auto;html=1;entryX=0.5;entryY=0;entryDx=0;entryDy=0;" edge="1" parent="WIyWlLk6GJQsqaUBKTNV-1" source="DIeXPmCnPWFFwvMt-zQG-3" target="DIeXPmCnPWFFwvMt-zQG-21">
          <mxGeometry relative="1" as="geometry" />
        </mxCell>
        <mxCell id="DIeXPmCnPWFFwvMt-zQG-3" value="board01" style="swimlane;whiteSpace=wrap;html=1;" vertex="1" parent="WIyWlLk6GJQsqaUBKTNV-1">
          <mxGeometry x="490" y="-40" width="120" height="130" as="geometry" />
        </mxCell>
        <mxCell id="DIeXPmCnPWFFwvMt-zQG-4" value="글 목록보기" style="text;html=1;align=center;verticalAlign=middle;resizable=0;points=[];autosize=1;strokeColor=none;fillColor=none;" vertex="1" parent="DIeXPmCnPWFFwvMt-zQG-3">
          <mxGeometry x="15" y="60" width="90" height="30" as="geometry" />
        </mxCell>
        <mxCell id="DIeXPmCnPWFFwvMt-zQG-163" style="edgeStyle=orthogonalEdgeStyle;rounded=0;orthogonalLoop=1;jettySize=auto;html=1;exitX=1;exitY=0.5;exitDx=0;exitDy=0;entryX=0;entryY=0.5;entryDx=0;entryDy=0;" edge="1" parent="WIyWlLk6GJQsqaUBKTNV-1" source="DIeXPmCnPWFFwvMt-zQG-14" target="DIeXPmCnPWFFwvMt-zQG-159">
          <mxGeometry relative="1" as="geometry" />
        </mxCell>
        <mxCell id="DIeXPmCnPWFFwvMt-zQG-14" value="글검색/&lt;div&gt;필터&lt;/div&gt;" style="ellipse;whiteSpace=wrap;html=1;aspect=fixed;" vertex="1" parent="WIyWlLk6GJQsqaUBKTNV-1">
          <mxGeometry x="230" y="60" width="60" height="60" as="geometry" />
        </mxCell>
        <mxCell id="DIeXPmCnPWFFwvMt-zQG-62" style="edgeStyle=orthogonalEdgeStyle;rounded=0;orthogonalLoop=1;jettySize=auto;html=1;entryX=0;entryY=0.5;entryDx=0;entryDy=0;" edge="1" parent="WIyWlLk6GJQsqaUBKTNV-1" source="DIeXPmCnPWFFwvMt-zQG-15" target="DIeXPmCnPWFFwvMt-zQG-18">
          <mxGeometry relative="1" as="geometry" />
        </mxCell>
        <mxCell id="DIeXPmCnPWFFwvMt-zQG-15" value="글쓰기" style="ellipse;whiteSpace=wrap;html=1;aspect=fixed;" vertex="1" parent="WIyWlLk6GJQsqaUBKTNV-1">
          <mxGeometry x="230" y="270" width="60" height="60" as="geometry" />
        </mxCell>
        <mxCell id="DIeXPmCnPWFFwvMt-zQG-67" style="edgeStyle=orthogonalEdgeStyle;rounded=0;orthogonalLoop=1;jettySize=auto;html=1;" edge="1" parent="WIyWlLk6GJQsqaUBKTNV-1" source="DIeXPmCnPWFFwvMt-zQG-18" target="DIeXPmCnPWFFwvMt-zQG-65">
          <mxGeometry relative="1" as="geometry" />
        </mxCell>
        <mxCell id="DIeXPmCnPWFFwvMt-zQG-18" value="board04" style="swimlane;whiteSpace=wrap;html=1;startSize=23;" vertex="1" parent="WIyWlLk6GJQsqaUBKTNV-1">
          <mxGeometry x="345" y="300" width="120" height="130" as="geometry" />
        </mxCell>
        <mxCell id="DIeXPmCnPWFFwvMt-zQG-19" value="글 쓰기" style="text;html=1;align=center;verticalAlign=middle;resizable=0;points=[];autosize=1;strokeColor=none;fillColor=none;" vertex="1" parent="DIeXPmCnPWFFwvMt-zQG-18">
          <mxGeometry x="30" y="60" width="60" height="30" as="geometry" />
        </mxCell>
        <mxCell id="DIeXPmCnPWFFwvMt-zQG-21" value="board02" style="swimlane;whiteSpace=wrap;html=1;" vertex="1" parent="WIyWlLk6GJQsqaUBKTNV-1">
          <mxGeometry x="640" y="130" width="120" height="130" as="geometry" />
        </mxCell>
        <mxCell id="DIeXPmCnPWFFwvMt-zQG-22" value="글 보기" style="text;html=1;align=center;verticalAlign=middle;resizable=0;points=[];autosize=1;strokeColor=none;fillColor=none;" vertex="1" parent="DIeXPmCnPWFFwvMt-zQG-21">
          <mxGeometry x="30" y="60" width="60" height="30" as="geometry" />
        </mxCell>
        <mxCell id="DIeXPmCnPWFFwvMt-zQG-51" style="edgeStyle=orthogonalEdgeStyle;rounded=0;orthogonalLoop=1;jettySize=auto;html=1;entryX=0;entryY=0.5;entryDx=0;entryDy=0;" edge="1" parent="WIyWlLk6GJQsqaUBKTNV-1" target="DIeXPmCnPWFFwvMt-zQG-3">
          <mxGeometry relative="1" as="geometry">
            <mxPoint x="470" y="25" as="sourcePoint" />
          </mxGeometry>
        </mxCell>
        <mxCell id="DIeXPmCnPWFFwvMt-zQG-45" style="edgeStyle=orthogonalEdgeStyle;rounded=0;orthogonalLoop=1;jettySize=auto;html=1;entryX=0;entryY=0.5;entryDx=0;entryDy=0;" edge="1" parent="WIyWlLk6GJQsqaUBKTNV-1" source="DIeXPmCnPWFFwvMt-zQG-1" target="DIeXPmCnPWFFwvMt-zQG-14">
          <mxGeometry relative="1" as="geometry" />
        </mxCell>
        <mxCell id="DIeXPmCnPWFFwvMt-zQG-50" style="edgeStyle=orthogonalEdgeStyle;rounded=0;orthogonalLoop=1;jettySize=auto;html=1;entryX=0;entryY=0.5;entryDx=0;entryDy=0;" edge="1" parent="WIyWlLk6GJQsqaUBKTNV-1" source="DIeXPmCnPWFFwvMt-zQG-1" target="DIeXPmCnPWFFwvMt-zQG-15">
          <mxGeometry relative="1" as="geometry" />
        </mxCell>
        <mxCell id="DIeXPmCnPWFFwvMt-zQG-113" style="edgeStyle=orthogonalEdgeStyle;rounded=0;orthogonalLoop=1;jettySize=auto;html=1;entryX=0;entryY=0.5;entryDx=0;entryDy=0;" edge="1" parent="WIyWlLk6GJQsqaUBKTNV-1" source="DIeXPmCnPWFFwvMt-zQG-65" target="DIeXPmCnPWFFwvMt-zQG-108">
          <mxGeometry relative="1" as="geometry" />
        </mxCell>
        <mxCell id="DIeXPmCnPWFFwvMt-zQG-65" value="글 쓰기" style="whiteSpace=wrap;html=1;aspect=fixed;" vertex="1" parent="WIyWlLk6GJQsqaUBKTNV-1">
          <mxGeometry x="490" y="300" width="130" height="130" as="geometry" />
        </mxCell>
        <mxCell id="DIeXPmCnPWFFwvMt-zQG-66" value="DB" style="shape=cylinder3;whiteSpace=wrap;html=1;boundedLbl=1;backgroundOutline=1;size=15;" vertex="1" parent="WIyWlLk6GJQsqaUBKTNV-1">
          <mxGeometry x="497.25" y="465" width="115.5" height="110" as="geometry" />
        </mxCell>
        <mxCell id="DIeXPmCnPWFFwvMt-zQG-103" style="edgeStyle=orthogonalEdgeStyle;rounded=0;orthogonalLoop=1;jettySize=auto;html=1;entryX=0;entryY=0.5;entryDx=0;entryDy=0;" edge="1" parent="WIyWlLk6GJQsqaUBKTNV-1" source="DIeXPmCnPWFFwvMt-zQG-73" target="DIeXPmCnPWFFwvMt-zQG-99">
          <mxGeometry relative="1" as="geometry" />
        </mxCell>
        <mxCell id="DIeXPmCnPWFFwvMt-zQG-73" value="글수정" style="ellipse;whiteSpace=wrap;html=1;aspect=fixed;" vertex="1" parent="WIyWlLk6GJQsqaUBKTNV-1">
          <mxGeometry x="820" y="-221" width="60" height="60" as="geometry" />
        </mxCell>
        <mxCell id="DIeXPmCnPWFFwvMt-zQG-101" style="edgeStyle=orthogonalEdgeStyle;rounded=0;orthogonalLoop=1;jettySize=auto;html=1;entryX=0;entryY=0.5;entryDx=0;entryDy=0;" edge="1" parent="WIyWlLk6GJQsqaUBKTNV-1" source="DIeXPmCnPWFFwvMt-zQG-74">
          <mxGeometry relative="1" as="geometry">
            <mxPoint x="1060" y="-41" as="targetPoint" />
          </mxGeometry>
        </mxCell>
        <mxCell id="DIeXPmCnPWFFwvMt-zQG-74" value="글삭제" style="ellipse;whiteSpace=wrap;html=1;aspect=fixed;" vertex="1" parent="WIyWlLk6GJQsqaUBKTNV-1">
          <mxGeometry x="820" y="-71" width="60" height="60" as="geometry" />
        </mxCell>
        <mxCell id="DIeXPmCnPWFFwvMt-zQG-192" style="edgeStyle=orthogonalEdgeStyle;rounded=0;orthogonalLoop=1;jettySize=auto;html=1;entryX=0.5;entryY=0;entryDx=0;entryDy=0;" edge="1" parent="WIyWlLk6GJQsqaUBKTNV-1" source="DIeXPmCnPWFFwvMt-zQG-80" target="DIeXPmCnPWFFwvMt-zQG-191">
          <mxGeometry relative="1" as="geometry" />
        </mxCell>
        <mxCell id="DIeXPmCnPWFFwvMt-zQG-80" value="글 수정" style="whiteSpace=wrap;html=1;aspect=fixed;" vertex="1" parent="WIyWlLk6GJQsqaUBKTNV-1">
          <mxGeometry x="1060" y="-256" width="130" height="130" as="geometry" />
        </mxCell>
        <mxCell id="DIeXPmCnPWFFwvMt-zQG-81" value="DB" style="shape=cylinder3;whiteSpace=wrap;html=1;boundedLbl=1;backgroundOutline=1;size=15;" vertex="1" parent="WIyWlLk6GJQsqaUBKTNV-1">
          <mxGeometry x="1067.25" y="-406" width="115.5" height="110" as="geometry" />
        </mxCell>
        <mxCell id="DIeXPmCnPWFFwvMt-zQG-98" style="edgeStyle=orthogonalEdgeStyle;rounded=0;orthogonalLoop=1;jettySize=auto;html=1;entryX=0;entryY=0.5;entryDx=0;entryDy=0;" edge="1" parent="WIyWlLk6GJQsqaUBKTNV-1" source="DIeXPmCnPWFFwvMt-zQG-96" target="DIeXPmCnPWFFwvMt-zQG-21">
          <mxGeometry relative="1" as="geometry" />
        </mxCell>
        <mxCell id="DIeXPmCnPWFFwvMt-zQG-96" value="글선택" style="ellipse;whiteSpace=wrap;html=1;aspect=fixed;" vertex="1" parent="WIyWlLk6GJQsqaUBKTNV-1">
          <mxGeometry x="230" y="165" width="60" height="60" as="geometry" />
        </mxCell>
        <mxCell id="DIeXPmCnPWFFwvMt-zQG-97" style="edgeStyle=orthogonalEdgeStyle;rounded=0;orthogonalLoop=1;jettySize=auto;html=1;entryX=0;entryY=0.5;entryDx=0;entryDy=0;" edge="1" parent="WIyWlLk6GJQsqaUBKTNV-1" source="DIeXPmCnPWFFwvMt-zQG-1" target="DIeXPmCnPWFFwvMt-zQG-96">
          <mxGeometry relative="1" as="geometry" />
        </mxCell>
        <mxCell id="DIeXPmCnPWFFwvMt-zQG-104" style="edgeStyle=orthogonalEdgeStyle;rounded=0;orthogonalLoop=1;jettySize=auto;html=1;entryX=0;entryY=0.5;entryDx=0;entryDy=0;" edge="1" parent="WIyWlLk6GJQsqaUBKTNV-1" source="DIeXPmCnPWFFwvMt-zQG-99" target="DIeXPmCnPWFFwvMt-zQG-80">
          <mxGeometry relative="1" as="geometry" />
        </mxCell>
        <mxCell id="DIeXPmCnPWFFwvMt-zQG-99" value="board04" style="swimlane;whiteSpace=wrap;html=1;" vertex="1" parent="WIyWlLk6GJQsqaUBKTNV-1">
          <mxGeometry x="910" y="-256" width="120" height="130" as="geometry" />
        </mxCell>
        <mxCell id="DIeXPmCnPWFFwvMt-zQG-100" value="글수정" style="text;html=1;align=center;verticalAlign=middle;resizable=0;points=[];autosize=1;strokeColor=none;fillColor=none;" vertex="1" parent="DIeXPmCnPWFFwvMt-zQG-99">
          <mxGeometry x="30" y="60" width="60" height="30" as="geometry" />
        </mxCell>
        <mxCell id="DIeXPmCnPWFFwvMt-zQG-115" style="edgeStyle=orthogonalEdgeStyle;rounded=0;orthogonalLoop=1;jettySize=auto;html=1;entryX=0.5;entryY=1;entryDx=0;entryDy=0;" edge="1" parent="WIyWlLk6GJQsqaUBKTNV-1" source="DIeXPmCnPWFFwvMt-zQG-108" target="DIeXPmCnPWFFwvMt-zQG-21">
          <mxGeometry relative="1" as="geometry" />
        </mxCell>
        <mxCell id="DIeXPmCnPWFFwvMt-zQG-108" value="board01" style="swimlane;whiteSpace=wrap;html=1;" vertex="1" parent="WIyWlLk6GJQsqaUBKTNV-1">
          <mxGeometry x="640" y="300" width="120" height="130" as="geometry" />
        </mxCell>
        <mxCell id="DIeXPmCnPWFFwvMt-zQG-109" value="글 목록보기" style="text;html=1;align=center;verticalAlign=middle;resizable=0;points=[];autosize=1;strokeColor=none;fillColor=none;" vertex="1" parent="DIeXPmCnPWFFwvMt-zQG-108">
          <mxGeometry x="15" y="60" width="90" height="30" as="geometry" />
        </mxCell>
        <mxCell id="DIeXPmCnPWFFwvMt-zQG-246" style="edgeStyle=orthogonalEdgeStyle;rounded=0;orthogonalLoop=1;jettySize=auto;html=1;entryX=0;entryY=0.5;entryDx=0;entryDy=0;" edge="1" parent="WIyWlLk6GJQsqaUBKTNV-1" target="DIeXPmCnPWFFwvMt-zQG-118">
          <mxGeometry relative="1" as="geometry">
            <mxPoint x="830" y="400" as="sourcePoint" />
          </mxGeometry>
        </mxCell>
        <mxCell id="DIeXPmCnPWFFwvMt-zQG-250" style="edgeStyle=orthogonalEdgeStyle;rounded=0;orthogonalLoop=1;jettySize=auto;html=1;entryX=0;entryY=0.5;entryDx=0;entryDy=0;" edge="1" parent="WIyWlLk6GJQsqaUBKTNV-1" source="DIeXPmCnPWFFwvMt-zQG-118" target="DIeXPmCnPWFFwvMt-zQG-155">
          <mxGeometry relative="1" as="geometry" />
        </mxCell>
        <mxCell id="DIeXPmCnPWFFwvMt-zQG-118" value="댓글쓰기" style="ellipse;whiteSpace=wrap;html=1;aspect=fixed;" vertex="1" parent="WIyWlLk6GJQsqaUBKTNV-1">
          <mxGeometry x="873" y="370" width="60" height="60" as="geometry" />
        </mxCell>
        <mxCell id="DIeXPmCnPWFFwvMt-zQG-252" style="edgeStyle=orthogonalEdgeStyle;rounded=0;orthogonalLoop=1;jettySize=auto;html=1;entryX=0;entryY=0.5;entryDx=0;entryDy=0;" edge="1" parent="WIyWlLk6GJQsqaUBKTNV-1" source="DIeXPmCnPWFFwvMt-zQG-119" target="DIeXPmCnPWFFwvMt-zQG-126">
          <mxGeometry relative="1" as="geometry" />
        </mxCell>
        <mxCell id="DIeXPmCnPWFFwvMt-zQG-119" value="댓글수정" style="ellipse;whiteSpace=wrap;html=1;aspect=fixed;" vertex="1" parent="WIyWlLk6GJQsqaUBKTNV-1">
          <mxGeometry x="873" y="519" width="60" height="60" as="geometry" />
        </mxCell>
        <mxCell id="DIeXPmCnPWFFwvMt-zQG-247" style="edgeStyle=orthogonalEdgeStyle;rounded=0;orthogonalLoop=1;jettySize=auto;html=1;exitX=0;exitY=0.5;exitDx=0;exitDy=0;entryX=0;entryY=0.5;entryDx=0;entryDy=0;" edge="1" parent="WIyWlLk6GJQsqaUBKTNV-1" target="DIeXPmCnPWFFwvMt-zQG-120">
          <mxGeometry relative="1" as="geometry">
            <mxPoint x="830" y="699" as="sourcePoint" />
          </mxGeometry>
        </mxCell>
        <mxCell id="DIeXPmCnPWFFwvMt-zQG-253" style="edgeStyle=orthogonalEdgeStyle;rounded=0;orthogonalLoop=1;jettySize=auto;html=1;entryX=0;entryY=0.5;entryDx=0;entryDy=0;" edge="1" parent="WIyWlLk6GJQsqaUBKTNV-1" source="DIeXPmCnPWFFwvMt-zQG-120" target="DIeXPmCnPWFFwvMt-zQG-127">
          <mxGeometry relative="1" as="geometry" />
        </mxCell>
        <mxCell id="DIeXPmCnPWFFwvMt-zQG-120" value="댓글삭제" style="ellipse;whiteSpace=wrap;html=1;aspect=fixed;" vertex="1" parent="WIyWlLk6GJQsqaUBKTNV-1">
          <mxGeometry x="873" y="669" width="60" height="60" as="geometry" />
        </mxCell>
        <mxCell id="DIeXPmCnPWFFwvMt-zQG-126" value="댓글 수정" style="whiteSpace=wrap;html=1;aspect=fixed;" vertex="1" parent="WIyWlLk6GJQsqaUBKTNV-1">
          <mxGeometry x="960" y="484" width="130" height="130" as="geometry" />
        </mxCell>
        <mxCell id="DIeXPmCnPWFFwvMt-zQG-127" value="글 삭제" style="whiteSpace=wrap;html=1;aspect=fixed;" vertex="1" parent="WIyWlLk6GJQsqaUBKTNV-1">
          <mxGeometry x="960" y="634" width="130" height="130" as="geometry" />
        </mxCell>
        <mxCell id="DIeXPmCnPWFFwvMt-zQG-155" value="글 검색" style="whiteSpace=wrap;html=1;aspect=fixed;" vertex="1" parent="WIyWlLk6GJQsqaUBKTNV-1">
          <mxGeometry x="960" y="335" width="130" height="130" as="geometry" />
        </mxCell>
        <mxCell id="DIeXPmCnPWFFwvMt-zQG-156" value="DB" style="shape=cylinder3;whiteSpace=wrap;html=1;boundedLbl=1;backgroundOutline=1;size=15;" vertex="1" parent="WIyWlLk6GJQsqaUBKTNV-1">
          <mxGeometry x="967.25" y="184" width="115.5" height="110" as="geometry" />
        </mxCell>
        <mxCell id="DIeXPmCnPWFFwvMt-zQG-157" value="" style="endArrow=classic;html=1;rounded=0;entryX=0.328;entryY=1.001;entryDx=0;entryDy=0;entryPerimeter=0;" edge="1" parent="WIyWlLk6GJQsqaUBKTNV-1" target="DIeXPmCnPWFFwvMt-zQG-156">
          <mxGeometry width="50" height="50" relative="1" as="geometry">
            <mxPoint x="1005" y="329" as="sourcePoint" />
            <mxPoint x="1005" y="259" as="targetPoint" />
          </mxGeometry>
        </mxCell>
        <mxCell id="DIeXPmCnPWFFwvMt-zQG-158" value="" style="endArrow=classic;html=1;rounded=0;" edge="1" parent="WIyWlLk6GJQsqaUBKTNV-1">
          <mxGeometry width="50" height="50" relative="1" as="geometry">
            <mxPoint x="1045" y="294" as="sourcePoint" />
            <mxPoint x="1045" y="329" as="targetPoint" />
          </mxGeometry>
        </mxCell>
        <mxCell id="DIeXPmCnPWFFwvMt-zQG-159" value="글 검색" style="whiteSpace=wrap;html=1;aspect=fixed;" vertex="1" parent="WIyWlLk6GJQsqaUBKTNV-1">
          <mxGeometry x="340" y="-40" width="130" height="130" as="geometry" />
        </mxCell>
        <mxCell id="DIeXPmCnPWFFwvMt-zQG-160" value="DB" style="shape=cylinder3;whiteSpace=wrap;html=1;boundedLbl=1;backgroundOutline=1;size=15;" vertex="1" parent="WIyWlLk6GJQsqaUBKTNV-1">
          <mxGeometry x="347.25" y="-185" width="115.5" height="110" as="geometry" />
        </mxCell>
        <mxCell id="DIeXPmCnPWFFwvMt-zQG-161" value="" style="endArrow=classic;html=1;rounded=0;entryX=0.328;entryY=1.001;entryDx=0;entryDy=0;entryPerimeter=0;" edge="1" target="DIeXPmCnPWFFwvMt-zQG-160" parent="WIyWlLk6GJQsqaUBKTNV-1">
          <mxGeometry width="50" height="50" relative="1" as="geometry">
            <mxPoint x="385" y="-40" as="sourcePoint" />
            <mxPoint x="385" y="-110" as="targetPoint" />
          </mxGeometry>
        </mxCell>
        <mxCell id="DIeXPmCnPWFFwvMt-zQG-162" value="" style="endArrow=classic;html=1;rounded=0;" edge="1" parent="WIyWlLk6GJQsqaUBKTNV-1">
          <mxGeometry width="50" height="50" relative="1" as="geometry">
            <mxPoint x="425" y="-75" as="sourcePoint" />
            <mxPoint x="425" y="-40" as="targetPoint" />
          </mxGeometry>
        </mxCell>
        <mxCell id="DIeXPmCnPWFFwvMt-zQG-172" value="" style="endArrow=classic;html=1;rounded=0;entryX=0.328;entryY=1.001;entryDx=0;entryDy=0;entryPerimeter=0;" edge="1" parent="WIyWlLk6GJQsqaUBKTNV-1">
          <mxGeometry width="50" height="50" relative="1" as="geometry">
            <mxPoint x="537.16" y="465" as="sourcePoint" />
            <mxPoint x="537.16" y="430" as="targetPoint" />
          </mxGeometry>
        </mxCell>
        <mxCell id="DIeXPmCnPWFFwvMt-zQG-173" value="" style="endArrow=classic;html=1;rounded=0;" edge="1" parent="WIyWlLk6GJQsqaUBKTNV-1">
          <mxGeometry width="50" height="50" relative="1" as="geometry">
            <mxPoint x="577.16" y="430" as="sourcePoint" />
            <mxPoint x="577.16" y="465" as="targetPoint" />
          </mxGeometry>
        </mxCell>
        <mxCell id="DIeXPmCnPWFFwvMt-zQG-193" style="edgeStyle=orthogonalEdgeStyle;rounded=0;orthogonalLoop=1;jettySize=auto;html=1;entryX=0.5;entryY=1;entryDx=0;entryDy=0;" edge="1" parent="WIyWlLk6GJQsqaUBKTNV-1" source="DIeXPmCnPWFFwvMt-zQG-174" target="DIeXPmCnPWFFwvMt-zQG-191">
          <mxGeometry relative="1" as="geometry" />
        </mxCell>
        <mxCell id="DIeXPmCnPWFFwvMt-zQG-174" value="글 삭제" style="whiteSpace=wrap;html=1;aspect=fixed;" vertex="1" parent="WIyWlLk6GJQsqaUBKTNV-1">
          <mxGeometry x="1060" y="-106" width="130" height="130" as="geometry" />
        </mxCell>
        <mxCell id="DIeXPmCnPWFFwvMt-zQG-175" value="DB" style="shape=cylinder3;whiteSpace=wrap;html=1;boundedLbl=1;backgroundOutline=1;size=15;" vertex="1" parent="WIyWlLk6GJQsqaUBKTNV-1">
          <mxGeometry x="1067.25" y="59" width="115.5" height="110" as="geometry" />
        </mxCell>
        <mxCell id="DIeXPmCnPWFFwvMt-zQG-176" value="" style="endArrow=classic;html=1;rounded=0;entryX=0.328;entryY=1.001;entryDx=0;entryDy=0;entryPerimeter=0;" edge="1" parent="WIyWlLk6GJQsqaUBKTNV-1">
          <mxGeometry width="50" height="50" relative="1" as="geometry">
            <mxPoint x="1107.1599999999999" y="59" as="sourcePoint" />
            <mxPoint x="1107.1599999999999" y="24" as="targetPoint" />
          </mxGeometry>
        </mxCell>
        <mxCell id="DIeXPmCnPWFFwvMt-zQG-177" value="" style="endArrow=classic;html=1;rounded=0;" edge="1" parent="WIyWlLk6GJQsqaUBKTNV-1">
          <mxGeometry width="50" height="50" relative="1" as="geometry">
            <mxPoint x="1147.1599999999999" y="24" as="sourcePoint" />
            <mxPoint x="1147.1599999999999" y="59" as="targetPoint" />
          </mxGeometry>
        </mxCell>
        <mxCell id="DIeXPmCnPWFFwvMt-zQG-180" value="" style="endArrow=classic;html=1;rounded=0;exitX=0.673;exitY=1.008;exitDx=0;exitDy=0;exitPerimeter=0;" edge="1" parent="WIyWlLk6GJQsqaUBKTNV-1" source="DIeXPmCnPWFFwvMt-zQG-81">
          <mxGeometry width="50" height="50" relative="1" as="geometry">
            <mxPoint x="1144.4099999999999" y="-291" as="sourcePoint" />
            <mxPoint x="1144.4099999999999" y="-256" as="targetPoint" />
          </mxGeometry>
        </mxCell>
        <mxCell id="DIeXPmCnPWFFwvMt-zQG-181" value="" style="endArrow=classic;html=1;rounded=0;entryX=0.327;entryY=0.977;entryDx=0;entryDy=0;entryPerimeter=0;" edge="1" parent="WIyWlLk6GJQsqaUBKTNV-1" target="DIeXPmCnPWFFwvMt-zQG-81">
          <mxGeometry width="50" height="50" relative="1" as="geometry">
            <mxPoint x="1104.4099999999999" y="-256" as="sourcePoint" />
            <mxPoint x="1104.4099999999999" y="-291" as="targetPoint" />
          </mxGeometry>
        </mxCell>
        <mxCell id="DIeXPmCnPWFFwvMt-zQG-182" value="DB" style="shape=cylinder3;whiteSpace=wrap;html=1;boundedLbl=1;backgroundOutline=1;size=15;" vertex="1" parent="WIyWlLk6GJQsqaUBKTNV-1">
          <mxGeometry x="967.25" y="799" width="115.5" height="110" as="geometry" />
        </mxCell>
        <mxCell id="DIeXPmCnPWFFwvMt-zQG-183" value="" style="endArrow=classic;html=1;rounded=0;entryX=0.328;entryY=1.001;entryDx=0;entryDy=0;entryPerimeter=0;" edge="1" parent="WIyWlLk6GJQsqaUBKTNV-1">
          <mxGeometry width="50" height="50" relative="1" as="geometry">
            <mxPoint x="1007.1599999999999" y="799" as="sourcePoint" />
            <mxPoint x="1007.1599999999999" y="764" as="targetPoint" />
          </mxGeometry>
        </mxCell>
        <mxCell id="DIeXPmCnPWFFwvMt-zQG-184" value="" style="endArrow=classic;html=1;rounded=0;" edge="1" parent="WIyWlLk6GJQsqaUBKTNV-1">
          <mxGeometry width="50" height="50" relative="1" as="geometry">
            <mxPoint x="1047.1599999999999" y="764" as="sourcePoint" />
            <mxPoint x="1047.1599999999999" y="799" as="targetPoint" />
          </mxGeometry>
        </mxCell>
        <mxCell id="DIeXPmCnPWFFwvMt-zQG-257" style="edgeStyle=orthogonalEdgeStyle;rounded=0;orthogonalLoop=1;jettySize=auto;html=1;exitX=1;exitY=0.5;exitDx=0;exitDy=0;exitPerimeter=0;" edge="1" parent="WIyWlLk6GJQsqaUBKTNV-1" source="DIeXPmCnPWFFwvMt-zQG-185">
          <mxGeometry relative="1" as="geometry">
            <mxPoint x="1320" y="548" as="targetPoint" />
          </mxGeometry>
        </mxCell>
        <mxCell id="DIeXPmCnPWFFwvMt-zQG-185" value="DB" style="shape=cylinder3;whiteSpace=wrap;html=1;boundedLbl=1;backgroundOutline=1;size=15;" vertex="1" parent="WIyWlLk6GJQsqaUBKTNV-1">
          <mxGeometry x="1133" y="494" width="115.5" height="110" as="geometry" />
        </mxCell>
        <mxCell id="DIeXPmCnPWFFwvMt-zQG-188" value="" style="endArrow=classic;html=1;rounded=0;exitX=1.013;exitY=0.425;exitDx=0;exitDy=0;exitPerimeter=0;entryX=-0.005;entryY=0.405;entryDx=0;entryDy=0;entryPerimeter=0;" edge="1" parent="WIyWlLk6GJQsqaUBKTNV-1" source="DIeXPmCnPWFFwvMt-zQG-126" target="DIeXPmCnPWFFwvMt-zQG-185">
          <mxGeometry width="50" height="50" relative="1" as="geometry">
            <mxPoint x="810" y="404" as="sourcePoint" />
            <mxPoint x="860" y="354" as="targetPoint" />
          </mxGeometry>
        </mxCell>
        <mxCell id="DIeXPmCnPWFFwvMt-zQG-189" value="" style="endArrow=classic;html=1;rounded=0;entryX=1.001;entryY=0.613;entryDx=0;entryDy=0;entryPerimeter=0;" edge="1" parent="WIyWlLk6GJQsqaUBKTNV-1" target="DIeXPmCnPWFFwvMt-zQG-126">
          <mxGeometry width="50" height="50" relative="1" as="geometry">
            <mxPoint x="1130" y="564" as="sourcePoint" />
            <mxPoint x="1100" y="454" as="targetPoint" />
          </mxGeometry>
        </mxCell>
        <mxCell id="DIeXPmCnPWFFwvMt-zQG-194" style="edgeStyle=orthogonalEdgeStyle;rounded=0;orthogonalLoop=1;jettySize=auto;html=1;entryX=0.5;entryY=0;entryDx=0;entryDy=0;" edge="1" parent="WIyWlLk6GJQsqaUBKTNV-1" source="DIeXPmCnPWFFwvMt-zQG-191" target="DIeXPmCnPWFFwvMt-zQG-0">
          <mxGeometry relative="1" as="geometry">
            <Array as="points">
              <mxPoint x="1294" y="-490" />
              <mxPoint x="110" y="-490" />
            </Array>
          </mxGeometry>
        </mxCell>
        <mxCell id="DIeXPmCnPWFFwvMt-zQG-191" value="글 목록보기" style="ellipse;whiteSpace=wrap;html=1;aspect=fixed;" vertex="1" parent="WIyWlLk6GJQsqaUBKTNV-1">
          <mxGeometry x="1230" y="-146" width="68" height="68" as="geometry" />
        </mxCell>
        <mxCell id="DIeXPmCnPWFFwvMt-zQG-233" value="" style="endArrow=none;html=1;rounded=0;exitX=1;exitY=0.5;exitDx=0;exitDy=0;" edge="1" parent="WIyWlLk6GJQsqaUBKTNV-1">
          <mxGeometry width="50" height="50" relative="1" as="geometry">
            <mxPoint x="780" y="195" as="sourcePoint" />
            <mxPoint x="800" y="-121" as="targetPoint" />
            <Array as="points">
              <mxPoint x="780" y="-121" />
            </Array>
          </mxGeometry>
        </mxCell>
        <mxCell id="DIeXPmCnPWFFwvMt-zQG-236" value="" style="endArrow=none;html=1;rounded=0;entryX=0;entryY=0.5;entryDx=0;entryDy=0;" edge="1" parent="WIyWlLk6GJQsqaUBKTNV-1" target="DIeXPmCnPWFFwvMt-zQG-73">
          <mxGeometry width="50" height="50" relative="1" as="geometry">
            <mxPoint x="800" y="-120" as="sourcePoint" />
            <mxPoint x="880" y="-170" as="targetPoint" />
            <Array as="points">
              <mxPoint x="800" y="-191" />
            </Array>
          </mxGeometry>
        </mxCell>
        <mxCell id="DIeXPmCnPWFFwvMt-zQG-237" value="" style="endArrow=none;html=1;rounded=0;entryX=0;entryY=0.5;entryDx=0;entryDy=0;" edge="1" parent="WIyWlLk6GJQsqaUBKTNV-1" target="DIeXPmCnPWFFwvMt-zQG-74">
          <mxGeometry width="50" height="50" relative="1" as="geometry">
            <mxPoint x="800" y="-120" as="sourcePoint" />
            <mxPoint x="1020" y="-20" as="targetPoint" />
            <Array as="points">
              <mxPoint x="800" y="-41" />
            </Array>
          </mxGeometry>
        </mxCell>
        <mxCell id="DIeXPmCnPWFFwvMt-zQG-241" value="" style="endArrow=none;html=1;rounded=0;exitX=1;exitY=0.5;exitDx=0;exitDy=0;" edge="1" parent="WIyWlLk6GJQsqaUBKTNV-1" source="DIeXPmCnPWFFwvMt-zQG-21">
          <mxGeometry width="50" height="50" relative="1" as="geometry">
            <mxPoint x="660" y="130" as="sourcePoint" />
            <mxPoint x="780" y="195" as="targetPoint" />
          </mxGeometry>
        </mxCell>
        <mxCell id="DIeXPmCnPWFFwvMt-zQG-242" value="" style="endArrow=none;html=1;rounded=0;" edge="1" parent="WIyWlLk6GJQsqaUBKTNV-1">
          <mxGeometry width="50" height="50" relative="1" as="geometry">
            <mxPoint x="780" y="550" as="sourcePoint" />
            <mxPoint x="780" y="194" as="targetPoint" />
          </mxGeometry>
        </mxCell>
        <mxCell id="DIeXPmCnPWFFwvMt-zQG-243" value="" style="endArrow=none;html=1;rounded=0;entryX=0;entryY=0.5;entryDx=0;entryDy=0;" edge="1" parent="WIyWlLk6GJQsqaUBKTNV-1" target="DIeXPmCnPWFFwvMt-zQG-119">
          <mxGeometry width="50" height="50" relative="1" as="geometry">
            <mxPoint x="780" y="550" as="sourcePoint" />
            <mxPoint x="690" y="520" as="targetPoint" />
          </mxGeometry>
        </mxCell>
        <mxCell id="DIeXPmCnPWFFwvMt-zQG-244" value="" style="endArrow=none;html=1;rounded=0;" edge="1" parent="WIyWlLk6GJQsqaUBKTNV-1">
          <mxGeometry width="50" height="50" relative="1" as="geometry">
            <mxPoint x="830" y="700" as="sourcePoint" />
            <mxPoint x="830" y="400" as="targetPoint" />
          </mxGeometry>
        </mxCell>
        <mxCell id="DIeXPmCnPWFFwvMt-zQG-254" value="" style="endArrow=none;html=1;rounded=0;exitX=1;exitY=0.5;exitDx=0;exitDy=0;" edge="1" parent="WIyWlLk6GJQsqaUBKTNV-1" source="DIeXPmCnPWFFwvMt-zQG-155">
          <mxGeometry width="50" height="50" relative="1" as="geometry">
            <mxPoint x="1080" y="490" as="sourcePoint" />
            <mxPoint x="1280" y="400" as="targetPoint" />
          </mxGeometry>
        </mxCell>
        <mxCell id="DIeXPmCnPWFFwvMt-zQG-255" value="" style="endArrow=none;html=1;rounded=0;" edge="1" parent="WIyWlLk6GJQsqaUBKTNV-1">
          <mxGeometry width="50" height="50" relative="1" as="geometry">
            <mxPoint x="1280" y="700" as="sourcePoint" />
            <mxPoint x="1280" y="400" as="targetPoint" />
          </mxGeometry>
        </mxCell>
        <mxCell id="DIeXPmCnPWFFwvMt-zQG-256" value="" style="endArrow=none;html=1;rounded=0;exitX=1;exitY=0.5;exitDx=0;exitDy=0;" edge="1" parent="WIyWlLk6GJQsqaUBKTNV-1" source="DIeXPmCnPWFFwvMt-zQG-127">
          <mxGeometry width="50" height="50" relative="1" as="geometry">
            <mxPoint x="1080" y="490" as="sourcePoint" />
            <mxPoint x="1280" y="699" as="targetPoint" />
          </mxGeometry>
        </mxCell>
        <mxCell id="DIeXPmCnPWFFwvMt-zQG-259" style="edgeStyle=orthogonalEdgeStyle;rounded=0;orthogonalLoop=1;jettySize=auto;html=1;entryX=0.75;entryY=0;entryDx=0;entryDy=0;" edge="1" parent="WIyWlLk6GJQsqaUBKTNV-1" source="DIeXPmCnPWFFwvMt-zQG-258" target="DIeXPmCnPWFFwvMt-zQG-21">
          <mxGeometry relative="1" as="geometry">
            <Array as="points">
              <mxPoint x="1354" y="-460" />
              <mxPoint x="730" y="-460" />
            </Array>
          </mxGeometry>
        </mxCell>
        <mxCell id="DIeXPmCnPWFFwvMt-zQG-258" value="글 보기" style="ellipse;whiteSpace=wrap;html=1;aspect=fixed;" vertex="1" parent="WIyWlLk6GJQsqaUBKTNV-1">
          <mxGeometry x="1320" y="515" width="68" height="68" as="geometry" />
        </mxCell>
      </root>
    </mxGraphModel>
  </diagram>
</mxfile>
